<svg xmlns="http://www.w3.org/2000/svg" viewBox="0 0 448 512" fill="#3d2b1f">
  <path d="M224,202.66A53.34,53.34,0,1,0,277.34,256,53.38,53.38,0,0,0,224,202.66Zm124.71-41a54,54,0,0,0-30.16-30.16C293.14,123.2,224,123.2,224,123.2s-69.14,0-94.55,8.28a54,54,0,0,0-30.16,30.16C91.2,180.86,91.2,256,91.2,256s0,75.14,8.28,94.55a54,54,0,0,0,30.16,30.16C154.86,388.8,224,388.8,224,388.8s69.14,0,94.55-8.28a54,54,0,0,0,30.16-30.16C356.8,331.14,356.8,256,356.8,256S356.8,180.86,348.71,161.63ZM224,338a82,82,0,1,1,82-82A82.09,82.09,0,0,1,224,338Zm85.33-148.22a19.2,19.2,0,1,1,19.2-19.2A19.22,19.22,0,0,1,309.33,189.78Z"></path>
</svg>
